<svg id="Capa_1" enable-background="new 0 0 512.002 512.002" height="512" viewBox="0 0 512.002 512.002" width="512" xmlns="http://www.w3.org/2000/svg"><g><path d="m7.501 437c-4.143 0-7.5 3.358-7.5 7.5v60c0 4.142 3.357 7.5 7.5 7.5s7.5-3.358 7.5-7.5v-60c0-4.142-3.357-7.5-7.5-7.5z"/><path d="m201.729 437c-20.678 0-37.5 16.822-37.5 37.5s16.822 37.5 37.5 37.5 37.5-16.822 37.5-37.5-16.823-37.5-37.5-37.5zm0 60c-12.406 0-22.5-10.093-22.5-22.5s10.094-22.5 22.5-22.5 22.5 10.093 22.5 22.5-10.094 22.5-22.5 22.5z"/><path d="m336.271 452c4.143 0 7.5-3.358 7.5-7.5s-3.357-7.5-7.5-7.5h-33.135c-4.143 0-7.5 3.358-7.5 7.5s3.357 7.5 7.5 7.5h9v52.5c0 4.142 3.357 7.5 7.5 7.5s7.5-3.358 7.5-7.5v-52.5z"/><path d="m373.7 442.694c-.025-.069-.053-.138-.081-.207-1.373-3.334-4.588-5.487-8.204-5.487-3.61.004-6.825 2.167-8.19 5.508-.023.056-.045.112-.066.168l-22.53 59.155c-1.475 3.871.469 8.204 4.339 9.678 3.869 1.474 8.204-.469 9.679-4.339l3.771-9.902h25.846l3.729 9.881c1.133 3.003 3.987 4.854 7.018 4.854.88 0 1.775-.156 2.647-.485 3.875-1.462 5.831-5.79 4.368-9.665zm-15.57 39.573 7.269-19.086 7.203 19.086z"/><path d="m504.501 437h-33.136c-4.143 0-7.5 3.358-7.5 7.5s3.357 7.5 7.5 7.5h9.001v52.5c0 4.142 3.357 7.5 7.5 7.5s7.5-3.358 7.5-7.5v-52.5h9.135c4.143 0 7.5-3.358 7.5-7.5s-3.357-7.5-7.5-7.5z"/><path d="m293.537 460.093c0-12.734-10.756-23.093-23.976-23.093h-15.953c-4.142 0-7.499 3.357-7.5 7.499l-.01 60c-.001 4.142 3.356 7.5 7.5 7.501 4.142 0 7.499-3.357 7.5-7.499l.003-16.981 19.305 21.936c1.482 1.685 3.553 2.545 5.633 2.545 1.76 0 3.527-.616 4.952-1.87 3.109-2.736 3.411-7.476.675-10.585l-15.249-17.326c9.89-2.849 17.12-11.688 17.12-22.127zm-23.975 8.094c-1.975 0-5.335.014-8.457.029l.002-16.216h8.454c4.865 0 8.976 3.706 8.976 8.093s-4.11 8.094-8.975 8.094z"/><path d="m134.594 437h-16.707c-4.143 0-7.5 3.358-7.5 7.5v60c0 4.142 3.357 7.5 7.5 7.5s7.5-3.358 7.5-7.5v-18.603c3.361-.017 7.066-.033 9.207-.033 13.654 0 24.764-10.96 24.764-24.432s-11.11-24.432-24.764-24.432zm0 33.864c-2.142 0-5.841.016-9.207.033v-18.897h9.207c5.292 0 9.764 4.319 9.764 9.432s-4.472 9.432-9.764 9.432z"/><path d="m450.865 437.056c-4.143 0-7.5 3.358-7.5 7.5v35.829l-27.685-40.09c-1.865-2.701-5.266-3.873-8.404-2.898-3.133.977-5.268 3.878-5.268 7.16v59.888c0 4.142 3.357 7.5 7.5 7.5s7.5-3.358 7.5-7.5v-35.829l27.685 40.09c1.427 2.066 3.755 3.239 6.173 3.239.743 0 1.494-.111 2.231-.34 3.133-.977 5.268-3.878 5.268-7.16v-59.888c0-4.143-3.357-7.501-7.5-7.501z"/><path d="m91.065 444.087c-.803-3.938-4.166-6.847-8.179-7.073-4.013-.223-7.681 2.287-8.921 6.109-.028.085-.055.171-.079.258l-10.645 37.338-10.644-37.338c-.024-.086-.051-.172-.079-.258-1.24-3.822-4.905-6.334-8.921-6.109-4.013.226-7.376 3.134-8.196 7.163l-11.17 58.447c-.778 4.068 1.89 7.997 5.958 8.774 4.07.774 7.997-1.89 8.774-5.959l6.313-33.027 9.466 33.207c.025.086.051.173.079.258 1.186 3.655 4.564 6.116 8.435 6.123 3.842-.007 7.221-2.467 8.406-6.123.028-.085.054-.172.079-.258l9.466-33.206 6.313 33.026c.777 4.07 4.713 6.734 8.774 5.959 4.068-.777 6.736-4.706 5.958-8.774z"/><path d="m256.001 145.709c-12.406 0-22.5 10.093-22.5 22.5v66.295c0 12.407 10.094 22.5 22.5 22.5s22.5-10.093 22.5-22.5v-66.295c0-12.407-10.094-22.5-22.5-22.5zm7.5 88.795c0 4.136-3.364 7.5-7.5 7.5s-7.5-3.364-7.5-7.5v-66.295c0-4.136 3.364-7.5 7.5-7.5s7.5 3.364 7.5 7.5z"/><path d="m256.001 272.004c-12.406 0-22.5 10.093-22.5 22.5s10.094 22.5 22.5 22.5 22.5-10.093 22.5-22.5-10.094-22.5-22.5-22.5zm0 30c-4.136 0-7.5-3.364-7.5-7.5s3.364-7.5 7.5-7.5 7.5 3.364 7.5 7.5-3.364 7.5-7.5 7.5z"/><path d="m97.501 422h317c45.49 0 82.5-37.009 82.5-82.5 0-15.317-4.23-30.273-12.233-43.251l-158.5-257c-15.159-24.577-41.426-39.249-70.267-39.249s-55.108 14.672-70.267 39.249l-158.5 257c-8.003 12.978-12.233 27.934-12.233 43.251 0 45.491 37.01 82.5 82.5 82.5zm-57.499-117.877 158.5-257c12.405-20.115 33.9-32.123 57.499-32.123s45.094 12.008 57.499 32.123l158.5 257c6.543 10.609 10.001 22.843 10.001 35.378 0 37.22-30.28 67.5-67.5 67.5h-317c-37.22 0-67.5-30.28-67.5-67.5 0-12.536 3.458-24.77 10.001-35.378z"/><path d="m97.501 392h317c28.948 0 52.5-23.551 52.5-52.5 0-9.753-2.687-19.264-7.768-27.503l-158.5-257c-9.653-15.652-26.376-24.997-44.732-24.997s-35.079 9.345-44.732 24.997l-71.376 115.732c-2.174 3.525-1.079 8.146 2.447 10.321 3.522 2.174 8.145 1.08 10.32-2.447l71.376-115.732c6.902-11.19 18.851-17.871 31.965-17.871s25.063 6.681 31.965 17.871l158.5 257c3.621 5.871 5.535 12.659 5.535 19.629 0 20.678-16.822 37.5-37.5 37.5h-317c-20.678 0-37.5-16.822-37.5-37.5 0-6.971 1.914-13.759 5.536-19.63l71.375-115.732c2.174-3.526 1.079-8.146-2.447-10.321-3.522-2.173-8.145-1.08-10.32 2.447l-71.375 115.731c-5.082 8.24-7.769 17.751-7.769 27.505 0 28.949 23.552 52.5 52.5 52.5z"/><path d="m90.001 339.5c0 4.142 3.357 7.5 7.5 7.5h317c4.143 0 7.5-3.358 7.5-7.5 0-2.127-.274-2.571-2.896-6.823l-77.46-125.608c-79.335-128.648-79.335-128.648-79.457-128.822-1.438-2.085-3.812-3.309-6.365-3.24-2.533.065-4.862 1.404-6.192 3.56l-156.734 254.109c-2.622 4.252-2.896 4.697-2.896 6.824zm166.014-242.708c25.35 41.104 118.594 192.304 145.05 235.208h-290.127c26.469-42.917 119.736-194.126 145.077-235.208z"/></g></svg>